# xmcd
#
# Track frame offsets: 
#        150
#        18319
#        39823
#        58443
#        77042
#        96680
#        117520
#        137606
#        157391
#        177886
#        195871
#
# Disc length: 2857 seconds
#
# Revision: 0
# Processed by: cddbd v1.5.1PL0 Copyright (c) Steve Scherf et al.
# Submitted via: ExactAudioCopy v0.95a5
#
DISCID=950b270b
DTITLE=Flamboyan - El Final Del Amor
DYEAR=2005
DGENRE=Latin
TTITLE0=Que Hay De Tu Vida
TTITLE1=El Final Del Amor
TTITLE2=Un Adios Para Siempre
TTITLE3=Sueño Latino
TTITLE4=No Es Igual
TTITLE5=Olvidame Tú
TTITLE6=Perdóname
TTITLE7=Cuando Llegó
TTITLE8=Como El Mar A Las Gaviotas
TTITLE9=Del Regreso Al Barrio
TTITLE10=Sueño Latino (New York)
EXTD=
EXTT0=
EXTT1=
EXTT2=
EXTT3=
EXTT4=
EXTT5=
EXTT6=
EXTT7=
EXTT8=
EXTT9=
EXTT10=
PLAYORDER=
